
        <svg xmlns="http://www.w3.org/2000/svg" xmlns:xlink="http://www.w3.org/1999/xlink" version="1.1" width="3250" 
        height="2116.5590617584558" viewBox="0 0 3250 2116.5590617584558">
			<rect fill="#eeeeee" width="3250" height="2116.5590617584558"/>
			<g transform="scale(12.5) translate(10, 10)">
				<defs id="SvgjsDefs3727"><linearGradient id="SvgjsLinearGradient3732"><stop id="SvgjsStop3733" stop-color="#147d6c" offset="0"></stop><stop id="SvgjsStop3734" stop-color="#1effff" offset="1"></stop></linearGradient></defs><g id="SvgjsG3728" featureKey="symbolFeature-0" transform="matrix(0.7543103200218491,0,0,0.7543103200218491,82.28448291985798,-2.7155170801420185)" fill="url(#SvgjsLinearGradient3732)"><path xmlns="http://www.w3.org/2000/svg" d="M50,3.6C26.1,3.6,6.2,21.6,3.8,45.3c-0.2,1.5-0.2,3.1-0.2,4.7c0,25.6,20.8,46.4,46.4,46.4c25.6,0,46.4-20.8,46.4-46.4  S75.6,3.6,50,3.6z M4.6,50c0-1.5,0.1-3.1,0.2-4.6C5,43.6,5.3,41.8,5.7,40h34.9c2.5,0,4.5,2,4.5,4.5v50.6c-3.1-0.3-6-1-8.9-1.9V55.5  c0-3.1-2.5-5.5-5.5-5.5h-8.1c-0.3-2.5-2.3-4.4-4.9-4.4c-2.7,0-4.9,2.2-4.9,4.9s2.2,4.9,4.9,4.9c2.5,0,4.6-1.9,4.9-4.4h8.1  c2.5,0,4.5,2,4.5,4.5v37.4C17.5,86.8,4.6,69.9,4.6,50z M21.7,50.5c0,2.2-1.8,3.9-3.9,3.9s-3.9-1.8-3.9-3.9c0-2.2,1.8-3.9,3.9-3.9  S21.7,48.3,21.7,50.5z M65.1,92.8V61.4c0-2.5,2-4.5,4.5-4.5h5.5c0.3,2.5,2.3,4.4,4.9,4.4c2.7,0,4.9-2.2,4.9-4.9s-2.2-4.9-4.9-4.9  c-2.5,0-4.6,1.9-4.9,4.4h-5.5c-3.1,0-5.5,2.5-5.5,5.5v31.7c-2.6,0.8-5.2,1.5-8,1.8V33.5c0-3.1-2.5-5.5-5.5-5.5H39  c-0.3-2.5-2.3-4.4-4.9-4.4c-2.7,0-4.9,2.2-4.9,4.9s2.2,4.9,4.9,4.9c2.5,0,4.6-1.9,4.9-4.4h11.6c2.5,0,4.5,2,4.5,4.5v61.6  c-1.7,0.2-3.4,0.3-5.1,0.3c-1.3,0-2.5-0.1-3.8-0.2V44.5c0-3.1-2.5-5.5-5.5-5.5H5.9C10.9,19,28.8,4.6,50,4.6c4.9,0,9.6,0.8,14.1,2.2  v25.6c0,3.1,2.5,5.5,5.5,5.5h5.5c0.3,2.5,2.3,4.4,4.9,4.4c2.7,0,4.9-2.2,4.9-4.9s-2.2-4.9-4.9-4.9c-2.5,0-4.6,1.9-4.9,4.4h-5.5  c-2.5,0-4.5-2-4.5-4.5V7.2C82.7,13.4,95.4,30.3,95.4,50C95.4,69.7,82.7,86.6,65.1,92.8z M76.1,56.4c0-2.2,1.8-3.9,3.9-3.9  s3.9,1.8,3.9,3.9s-1.8,3.9-3.9,3.9S76.1,58.6,76.1,56.4z M38,28.5c0,2.2-1.8,3.9-3.9,3.9s-3.9-1.8-3.9-3.9s1.8-3.9,3.9-3.9  S38,26.3,38,28.5z M76.1,37.5c0-2.2,1.8-3.9,3.9-3.9s3.9,1.8,3.9,3.9s-1.8,3.9-3.9,3.9S76.1,39.7,76.1,37.5z"></path></g><g id="SvgjsG3729" featureKey="nameFeature-0" transform="matrix(1.9934381949675084,0,0,1.9934381949675084,-2.392121651561233,67.99244050251153)" fill="#111111"><path d="M1.2 26.119999999999997 c0 -8.76 7.12 -15.08 14.88 -15.08 c3.68 0 7.36 1.08 9.68 3.72 l-0.04 5.16 l-1.8 0 c0.16 -3.12 -3.64 -6.52 -7.8 -6.52 c-4.8 0 -9.36 4.64 -9.36 12.72 c0 7.12 4.16 12.12 9.36 12.12 c4.12 0 8.24 -2.84 7.8 -6.4 l1.84 0.04 l0 5.56 c-2.64 2.08 -6.28 3.36 -9.68 3.36 c-8 0 -14.88 -6.24 -14.88 -14.68 z M53.825 38.12 c0.76 0.76 1.4 1.04 2.24 1.04 l0 1.04 l-5.8 0 l-7.44 -10.8 l-4 0 l0 8.64 c0 0.8 0.84 1.12 1.72 1.12 l0 1.04 l-7.8 0 l0 -1.04 c0.88 0 1.72 -0.32 1.72 -1.12 l0 -24.44 c-0.16 -0.6 -0.92 -0.84 -1.68 -0.84 l0 -1.04 l10.56 0 c6.72 0 10.24 3.72 10.24 8.68 s-3.52 8.04 -6.44 8.04 z M43.105000000000004 26.880000000000003 c3.36 0.04 5.84 -3.08 5.84 -6.88 c0 -3.92 -3.28 -5.92 -6.08 -5.92 c-3.04 0 -3.92 -0.16 -3.92 1.44 l0 11.32 z M88.37 11.600000000000001 l0 1.04 c-0.92 0 -1.76 0.32 -1.72 1.12 l0 16.32 c0 4.4 -2.08 10.68 -11.04 10.68 c-9.28 0 -11.64 -6.28 -11.64 -10 l0 -17 c0.04 -0.8 -0.8 -1.12 -1.72 -1.12 l0 -1.04 l8.24 0 l0 1.04 c-0.92 0 -1.76 0.32 -1.72 1.12 l0 16.64 c0 3.52 1.28 7.56 6.84 7.56 s6.4 -4.04 6.4 -7.36 l0 -16.84 c0.04 -0.8 -0.8 -1.12 -1.72 -1.12 l0 -1.04 l8.08 0 z M119.635 17.72 c1.16 2.32 1.96 4.96 1.96 8.16 s-0.84 6.4 -2.2 8.56 c-1.92 3.08 -7.56 5.76 -11.68 5.76 l-12.36 0 l0 -1.04 c0.92 0 1.76 -0.32 1.72 -1.12 l0 -24.2 c0 -0.8 -0.84 -1.12 -1.72 -1.12 l0 -1.04 l12.88 0 c5.32 0 9.8 2.8 11.4 6.04 z M106.755 37.52 c5.84 0 10 -4.28 10 -11.92 s-5.56 -11.4 -10.08 -11.36 l-5.8 0.04 l0 23.32 c2.04 -0.04 3.36 -0.08 5.88 -0.08 z"></path></g>
			</g>
		</svg>
	